# xmcd
#
# Track frame offsets: 
#        150
#        12083
#        28243
#        40143
#        55441
#        71341
#        89108
#        105493
#        118743
#        135406
#        147363
#        166558
#        180596
#        193628
#
# Disc length: 2720 seconds
#
# Revision: 0
# Processed by: cddbd v1.5.2PL0 Copyright (c) Steve Scherf et al.
# Submitted via: ExactAudioCopy v1.0b3
#
DISCID=bc0a9e0e
DTITLE=Various Artist - Mega Hit Blues
DYEAR=1994
DGENRE=Blues
TTITLE0=Robert Johnson - Cross road blues
TTITLE1=Muddy Waters - The Blues had a baby and they named it Rock and
TTITLE1=Roll
TTITLE2=Taj Mahal - Lovin' in my baby's eyes
TTITLE3=Johnny Winter - Johnny B. Goode
TTITLE4=The Jeff Healey Band - River of no return
TTITLE5=Nina Simone - Blues for mama
TTITLE6=Stevie Ray Vaughan and Double Trouble - Pride and joy
TTITLE7=Leroy Carr - When the sun goes down
TTITLE8=Etta James - Hold me
TTITLE9=Billie Holiday with Ray Ellis and His Famous Orchestra - Billie'
TTITLE9=s blues
TTITLE10=Louis Armstrong and All His Stars - Back o' town blues
TTITLE11=Duke Ellington and His Famous Orchestra - Rock in my bed
TTITLE12=Count Basie and His Orchestra - Brand new wagon
TTITLE13=Keb' Mo' - Am I wrong
EXTD=
EXTT0=
EXTT1=
EXTT2=
EXTT3=
EXTT4=
EXTT5=
EXTT6=
EXTT7=
EXTT8=
EXTT9=
EXTT10=
EXTT11=
EXTT12=
EXTT13=
PLAYORDER=
